<svg width="1048pt" height="1394pt" viewBox="0 0 1048 1394" version="1.1" xmlns="http://www.w3.org/2000/svg">
	<path  d=" M 516.20 13.18 C 520.14 12.21 523.96 10.64 528.02 10.22 C 531.30 10.41 534.41 11.64 537.58 12.46 C 698.05 55.82 858.63 98.79 1019.20 141.82 C 1023.09 142.87 1027.08 143.66 1030.83 145.23 C 1031.23 178.48 1030.87 211.75 1031.00 245.00 C 1031.01 450.33 1030.99 655.67 1030.98 861.00 C 1031.31 870.71 1029.89 880.34 1029.94 890.04 C 1027.31 933.23 1019.20 976.16 1005.04 1017.09 C 981.09 1087.39 938.39 1150.64 884.50 1201.48 C 831.38 1251.89 768.16 1290.82 701.36 1320.37 C 652.37 1341.92 601.16 1358.32 548.93 1369.96 C 538.93 1371.75 528.83 1375.62 518.56 1373.41 C 440.89 1357.34 365.26 1330.47 295.67 1292.29 C 229.43 1255.73 168.51 1208.06 121.76 1148.22 C 89.63 1107.09 64.26 1060.54 48.18 1010.84 C 33.65 966.71 26.39 920.36 24.98 873.99 C 25.03 649.00 24.99 424.00 25.00 199.00 C 25.15 181.42 24.72 163.83 25.18 146.26 C 29.42 144.44 33.98 143.62 38.41 142.37 C 197.64 99.20 356.91 56.15 516.20 13.18 M 521.54 96.47 C 445.85 116.85 370.13 137.15 294.43 157.49 C 231.69 174.43 168.86 191.10 106.20 208.32 C 105.67 213.53 106.04 218.77 105.98 224.00 C 106.01 433.67 106.00 643.33 105.95 853.00 C 106.20 865.33 105.37 877.71 106.73 889.99 C 109.41 929.39 118.29 968.36 132.92 1005.03 C 152.03 1053.52 182.63 1096.90 219.24 1133.75 C 244.69 1158.72 272.77 1180.97 302.81 1200.18 C 370.83 1243.44 446.82 1273.64 525.29 1291.69 C 527.56 1292.12 529.88 1291.72 532.13 1291.27 C 593.20 1277.08 652.66 1255.55 708.09 1226.16 C 770.36 1193.47 827.80 1149.94 871.24 1094.24 C 891.30 1068.41 908.22 1040.06 920.81 1009.85 C 937.61 969.37 947.25 925.96 949.36 882.20 C 950.59 870.51 949.77 858.73 950.00 847.00 C 949.99 651.67 950.00 456.33 950.00 261.00 C 949.84 243.44 950.32 225.86 949.79 208.32 C 939.35 205.17 928.73 202.64 918.22 199.71 C 788.69 164.93 659.20 129.95 529.60 95.43 C 526.87 94.86 524.16 95.87 521.54 96.47 Z" />
	<path d=" M 515.78 146.74 C 520.91 145.66 526.12 143.23 531.44 144.50 C 652.79 176.56 774.20 208.46 895.56 240.48 C 899.99 241.70 904.55 242.51 908.82 244.27 C 909.24 282.50 908.87 320.76 909.00 359.00 C 908.89 401.02 909.20 443.06 908.84 485.08 C 903.82 484.66 899.07 482.92 894.23 481.71 C 776.26 450.74 658.38 419.43 540.35 388.68 C 535.40 387.52 530.41 385.19 525.23 386.23 C 400.86 418.57 276.70 451.72 152.42 484.41 C 151.01 484.72 149.57 484.89 148.15 485.09 C 147.78 463.74 148.11 442.36 148.00 421.00 C 148.00 366.33 148.00 311.66 148.00 257.00 C 148.09 252.54 147.49 248.01 148.53 243.62 C 270.94 211.31 393.36 179.04 515.78 146.74 Z" />
	<path d=" M 515.09 432.09 C 520.04 430.70 525.16 427.82 530.39 429.62 C 573.41 442.87 616.39 456.30 659.40 469.59 C 668.50 472.59 677.88 474.80 686.82 478.27 C 687.29 493.50 686.85 508.76 687.00 524.00 C 687.00 729.67 687.00 935.34 687.00 1141.00 C 686.81 1149.56 687.36 1158.14 686.80 1166.68 C 680.53 1171.02 673.58 1174.26 667.01 1178.09 C 622.64 1202.50 576.70 1224.29 528.84 1240.97 C 525.19 1242.05 521.75 1239.62 518.37 1238.62 C 469.76 1221.01 423.19 1198.18 378.18 1172.84 C 374.60 1170.77 370.79 1169.06 367.50 1166.52 C 367.02 1143.03 367.46 1119.50 367.31 1096.00 C 367.42 897.67 367.13 699.33 367.01 501.00 C 367.23 493.49 366.52 485.95 367.33 478.47 C 416.44 462.58 465.87 447.63 515.09 432.09 Z" />
	<path d=" M 304.22 493.25 C 307.72 492.28 311.22 491.26 314.85 490.92 C 315.19 532.94 314.89 574.97 315.00 617.00 C 314.99 788.67 314.95 960.34 314.97 1132.00 C 314.96 1136.72 315.13 1141.45 314.82 1146.17 C 308.60 1142.99 303.34 1138.31 297.57 1134.43 C 280.69 1122.19 264.23 1109.31 249.00 1095.04 C 210.83 1059.48 180.18 1015.20 163.45 965.59 C 154.03 938.04 149.31 909.04 148.00 880.00 C 148.00 772.00 148.00 664.00 148.00 556.00 C 148.17 548.79 147.63 541.55 148.23 534.36 C 200.18 520.50 252.24 507.03 304.22 493.25 M 254.33 535.29 C 229.47 541.77 204.65 548.41 179.77 554.82 C 178.52 555.17 177.33 555.71 176.13 556.23 C 175.78 560.81 176.01 565.41 176.00 570.00 C 175.99 673.66 175.96 777.33 175.96 880.99 C 177.16 910.96 183.21 940.80 194.22 968.73 C 213.25 1016.98 246.74 1058.70 286.97 1091.03 C 287.04 1003.02 286.99 915.01 287.00 827.00 C 286.91 726.98 287.18 626.96 286.87 526.95 C 275.92 529.26 265.19 532.57 254.33 535.29 Z" />
	<path d=" M 745.15 490.92 C 750.15 491.40 754.92 493.09 759.77 494.31 C 798.57 504.51 837.36 514.76 876.17 524.89 C 888.02 528.11 900.01 530.84 911.78 534.31 C 912.34 548.18 911.82 562.10 912.00 576.00 C 912.01 677.33 911.97 778.66 912.02 880.00 C 910.50 918.78 902.00 957.43 885.80 992.77 C 871.83 1023.56 852.37 1051.73 829.40 1076.48 C 808.58 1099.52 784.09 1118.85 758.97 1136.96 C 754.41 1140.08 750.22 1143.80 745.19 1146.16 C 744.85 1091.78 745.22 1037.39 745.07 983.00 C 745.04 851.33 745.03 719.67 745.01 588.00 C 745.11 555.64 744.80 523.27 745.15 490.92 M 773.13 526.95 C 772.83 601.62 773.09 676.32 773.00 751.00 C 773.02 864.35 772.95 977.71 773.03 1091.06 C 775.36 1089.42 777.58 1087.63 779.72 1085.75 C 806.27 1062.73 830.02 1036.14 847.80 1005.72 C 867.67 972.06 879.70 933.90 883.15 894.99 C 884.62 883.72 883.86 872.33 884.05 861.00 C 884.50 787.00 884.15 713.00 884.03 639.00 C 883.78 611.40 884.57 583.79 883.82 556.21 C 879.06 554.21 873.95 553.34 869.01 551.95 C 847.42 546.18 825.80 540.56 804.19 534.87 C 793.81 532.32 783.59 529.09 773.13 526.95 Z" />
</svg>
