<svg xmlns="http://www.w3.org/2000/svg" width="320pt" height="320pt" viewBox="0 0 320 320">
    <path d="M157.43 0h2.13c9.06 1.18 18.27.53 27.28 2.13 15.6 2.72 30.85 7.75 44.83 15.2 3.1 1.54 6.08 3.38 9.36 4.53 7.28-5.54 12.86-13.07 19.8-19.04 2.94-2.46 7.22-2.31 10.73-1.45 4.46 2.28 5.69 7.46 6.06 12.04 3.99 28.9 8.22 57.77 12.33 86.65.7 4.03-.25 8.65-3.93 10.97-3.69 3.03-8.54 1.17-12.74.68-28.86-4.18-57.73-8.27-86.6-12.38-4.16-.29-7.55-3.63-8.62-7.54-.73-3.48 1.02-6.9 3.23-9.48 5.6-6.24 12.17-11.58 17.58-18-12.14-4.34-24.84-8.04-37.87-7.35-21.08-.99-42.27 5.5-59.61 17.42-7.72 4.75-13.84 11.49-20.12 17.9-8.79 10.28-15.55 22.27-19.9 35.08-3.87 11.45-4.98 23.59-5.51 35.59-.11 5-5.79 8.44-10.41 7.69-12.47-1.91-24.99-3.59-37.43-5.66-4.4-.45-7.29-4.27-8.02-8.39v-7.99c1.15-8.11 1.48-16.34 3.24-24.35 6.64-30.1 22.24-58.18 44.49-79.52 11.76-12.07 26.13-21.17 40.93-29.02C104.25 8.35 120.9 3.15 138.04 1.1 144.49.49 151 .93 157.43 0zM264.98 154.98c2.27-3.87 7.28-5.63 11.59-4.65 11.59 1.98 23.26 3.54 34.89 5.23 4.33.28 6.86 4.12 8.54 7.67v2.28c-1.06 7.18-.47 14.49-1.8 21.64-5.88 35.07-23.72 68.08-50.03 92.02-10.73 9.28-22.28 17.8-35.16 23.85-11.83 6.2-24.51 10.78-37.6 13.44-7.62 1.64-15.51 1.55-23.07 3.54h-19.72c-8.98-1.46-18.17-1.36-27.03-3.59-11.2-2.72-22.27-6.23-32.6-11.39-4.73-2.19-9.16-5.02-14.03-6.88-3.98 2.51-6.76 6.46-10.21 9.61-4.55 4.24-8.33 9.58-14.12 12.25h-4.32c-2.66-1.23-5.59-2.74-6.65-5.68-1.69-4.6-1.82-9.57-2.6-14.37-3.86-26.85-7.6-53.71-11.56-80.54-1.4-6.25 5.11-12.63 11.33-11.28 30.34 4.44 60.7 8.76 91.07 13.02 3.63.53 7.66 2.43 8.78 6.22.9 3.48.74 7.65-1.94 10.34-5.66 6.19-12.19 11.57-17.6 17.98 9.04 3.31 18.45 5.73 27.98 7.11 7.27.42 14.57.3 21.84.08 11.87-1.28 23.54-4.56 34.38-9.54 15.62-7.73 29.41-19.29 39.39-33.62 9.36-12.73 14.93-27.94 17.63-43.42 1.42-7.04-.6-14.65 2.62-21.32z"/>
</svg>
